<?xml version="1.0" encoding="UTF-8" standalone="no"?>
<!-- Created with Inkscape (http://www.inkscape.org/) -->

<svg
   width="166"
   height="166"
   viewBox="0 0 43.920835 43.920834"
   version="1.1"
   id="svg1"
   xml:space="preserve"
   xmlns="http://www.w3.org/2000/svg"
   xmlns:svg="http://www.w3.org/2000/svg"><defs
     id="defs1" /><path
     style="fill:#ffffff;stroke:none;stroke-width:0.297871"
     d="m 26.968543,11.304926 c -2.596647,0.340938 -4.822453,1.138999 -6.777739,2.96845 -0.917962,0.858885 -1.673187,1.942316 -2.226002,3.066599 -3.705754,7.536543 2.823143,16.290843 11.052843,15.266895 5.024549,-0.625166 9.075925,-5.103484 9.296669,-10.14414 0.258399,-5.90051 -5.177877,-11.967644 -11.345771,-11.157804 m -8.669277,18.250848 c -2.270744,-3.447213 -3.497775,-7.264815 -2.073124,-11.348871 0.491692,-1.409547 1.294599,-2.532801 2.073124,-3.782958 -3.002785,0 -6.564317,-0.549502 -9.2209632,1.158397 -4.7443083,3.05001 -4.6879359,10.434003 0.4728693,13.086073 2.6354679,1.354334 5.8792049,0.887359 8.7480939,0.887359 m 9.378581,-14.501337 c -0.181162,1.052771 -0.552373,1.971248 -0.357509,3.073654 0.622034,3.519034 3.971472,5.154681 7.214121,4.413451 -0.17722,1.394961 -0.639159,2.667249 -1.514084,3.782957 -0.554776,0.707453 -1.25707,1.280049 -2.032439,1.732945 -0.771352,0.450549 -1.639986,0.695649 -2.521972,0.801251 -5.913826,0.70805 -9.915981,-5.998266 -6.53936,-10.888228 0.610942,-0.884749 1.416494,-1.567835 2.362344,-2.07227 1.058152,-0.564325 2.192167,-0.84363 3.388899,-0.84376 z"
     id="path1" /></svg>
