<?xml version="1.0" encoding="UTF-8" standalone="no"?>
<!-- Created with Inkscape (http://www.inkscape.org/) -->

<svg
   width="166"
   height="166"
   viewBox="0 0 43.920835 43.920834"
   version="1.1"
   id="svg1"
   xml:space="preserve"
   xmlns="http://www.w3.org/2000/svg"
   xmlns:svg="http://www.w3.org/2000/svg"><defs
     id="defs1" /><path
     id="path2"
     style="fill:#000000;stroke:none;stroke-width:0.605913"
     d="M 16.326136,11.231873 A 10.72859,10.72859 0 0 0 5.5975913,21.960417 10.72859,10.72859 0 0 0 16.326136,32.688962 10.72859,10.72859 0 0 0 27.05468,21.960417 10.72859,10.72859 0 0 0 16.326136,11.231873 Z m -5.17e-4,1.313615 a 0.66145998,0.66145998 0 0 1 0.661975,0.661975 v 1.066602 a 0.66145998,0.66145998 0 0 1 -0.661975,0.661975 0.66145998,0.66145998 0 0 1 -0.661975,-0.661975 v -1.066602 a 0.66145998,0.66145998 0 0 1 0.661975,-0.661975 z m 14.036353,1.816943 c -1.597812,-0.07611 -3.238887,0.06149 -4.740279,0.06149 0.778525,1.250157 1.581566,2.373685 2.073258,3.783232 1.424651,4.084056 0.197486,7.901448 -2.073258,11.348661 2.868889,0 6.112318,0.46705 8.747786,-0.887284 5.160805,-2.65207 5.217148,-10.036013 0.47284,-13.086023 -1.328323,-0.85395 -2.882535,-1.143969 -4.480347,-1.220081 z m -20.224606,0.746725 a 0.66145998,0.66145998 0 0 1 0.467672,0.193786 l 0.753959,0.753959 a 0.66145998,0.66145998 0 0 1 0,0.935861 0.66145998,0.66145998 0 0 1 -0.93586,0 L 9.6691775,16.238803 a 0.66145998,0.66145998 0 0 1 0,-0.935861 0.66145998,0.66145998 0 0 1 0.4681885,-0.193786 z m 12.377023,0 a 0.66145998,0.66145998 0 0 1 0.467671,0.193786 0.66145998,0.66145998 0 0 1 0,0.935861 l -0.753959,0.753959 a 0.66145998,0.66145998 0 0 1 -0.93586,0 0.66145998,0.66145998 0 0 1 0,-0.935861 L 22.0462,15.302942 a 0.66145998,0.66145998 0 0 1 0.468189,-0.193786 z m -6.188253,0.898136 a 5.953125,5.953125 0 0 1 5.953125,5.953125 5.953125,5.953125 0 0 1 -5.953125,5.953125 5.953125,5.953125 0 0 1 -5.953125,-5.953125 5.953125,5.953125 0 0 1 5.953125,-5.953125 z m -8.7524379,5.292184 h 1.0666016 a 0.66145998,0.66145998 0 0 1 0.6599081,0.659908 0.66145998,0.66145998 0 0 1 -0.6599081,0.661975 H 7.5736981 A 0.66145998,0.66145998 0 0 1 6.911723,21.959384 0.66145998,0.66145998 0 0 1 7.5736981,21.299476 Z m 16.4393069,0 h 1.066602 a 0.66145998,0.66145998 0 0 1 0.659908,0.659908 0.66145998,0.66145998 0 0 1 -0.659908,0.661975 h -1.066602 a 0.66145998,0.66145998 0 0 1 -0.661975,-0.661975 0.66145998,0.66145998 0 0 1 0.661975,-0.659908 z m -13.12168,5.43481 a 0.66145998,0.66145998 0 0 1 0.467672,0.193787 0.66145998,0.66145998 0 0 1 0,0.93586 l -0.753959,0.753442 a 0.66145998,0.66145998 0 0 1 -0.9358605,0 0.66145998,0.66145998 0 0 1 0,-0.935343 l 0.7539595,-0.753959 a 0.66145998,0.66145998 0 0 1 0.468188,-0.193787 z m 10.869104,0 a 0.66145998,0.66145998 0 0 1 0.467672,0.193787 l 0.753959,0.753959 a 0.66145998,0.66145998 0 0 1 0,0.935343 0.66145998,0.66145998 0 0 1 -0.93586,0 l -0.753959,-0.753442 a 0.66145998,0.66145998 0 0 1 0,-0.93586 0.66145998,0.66145998 0 0 1 0.468188,-0.193787 z m -5.43481,2.250509 a 0.66145998,0.66145998 0 0 1 0.661975,0.661975 v 1.066602 a 0.66145998,0.66145998 0 0 1 -0.661975,0.661975 0.66145998,0.66145998 0 0 1 -0.661975,-0.661975 V 29.64677 a 0.66145998,0.66145998 0 0 1 0.661975,-0.661975 z" /></svg>
