<svg xmlns="http://www.w3.org/2000/svg" viewBox="0 0 245.4 58.96"><defs><style>.cls-1{isolation:isolate;}.cls-2{fill:#ec1c24;}.cls-3{fill:#231f20;fill-rule:evenodd;opacity:0.3;mix-blend-mode:multiply;}.cls-4{fill:#fff;}</style></defs><g class="cls-1"><g id="Capa_2" data-name="Capa 2"><g id="Capa_3" data-name="Capa 3"><rect class="cls-2" width="58.96" height="58.96"/><polygon class="cls-3" points="58.96 30.23 46.02 17.28 24.66 16.83 17.85 29.33 31.23 42.71 12.94 41.27 30.57 58.96 58.96 58.96 58.96 30.23"/><rect class="cls-2" x="62.15" width="58.96" height="58.96"/><polygon class="cls-3" points="121.1 22.5 109.95 11.31 97.29 24.63 83.97 11.31 78.35 16.94 93 31.59 87.08 47.64 98.41 58.96 121.1 58.96 121.1 22.5"/><rect class="cls-2" x="124.29" width="58.96" height="58.96"/><polygon class="cls-3" points="183.25 36.2 158.36 11.31 135.5 47.64 146.85 58.96 183.25 58.96 183.25 36.2"/><rect class="cls-2" x="186.44" width="58.96" height="58.96"/><polygon class="cls-3" points="245.4 32 228.38 14.99 205.42 16.93 199.84 47.64 211.19 58.96 245.4 58.96 245.4 32"/><path class="cls-4" d="M19.89,36.78c3.16,2.85,6.17,4.54,10.51,4.54,2.4,0,6.78-1,6.78-4.19,0-1.83-1.37-2.75-4.08-3.21l-7.55-1.23c-6.74-1.07-10.41-4.64-10.41-10,0-8.77,7.09-12.4,14.85-12.4a21.55,21.55,0,0,1,16,7l-6.89,4.95a12.53,12.53,0,0,0-9.74-4.59c-2.09,0-5.16,1.33-5.16,3.68,0,1.93,1.58,2.9,5.05,3.47l3.47.56C40,26.52,46,28.77,46,35.7c0,10.93-9.85,13-16.63,13-6.18,0-11.43-2-16.39-7.4Z"/><path class="cls-4" d="M87.08,30.7,73.3,11.31H83.92l7.7,12.56,7.71-12.56H110L96.17,30.7V47.64H87.08Z"/><path class="cls-4" d="M148.92,11.31h9.39L172,47.64H162.3l-1.84-5.71H147l-1.84,5.71h-9.69Zm9.34,23.89-4.49-15h-.1l-4.49,15Z"/><path class="cls-4" d="M199.84,11.31H218c8.16,0,13.16,3.78,13.16,11.94a10,10,0,0,1-7.49,9.8L232,47.64H221.84l-7.15-13.06h-5.76V47.64h-9.09Zm9.09,16.54h8.31c2.91-.06,4.85-1.53,4.85-4.9s-1.94-4.85-4.85-4.9h-8.31Z"/></g></g></g></svg>